<!-- Creator: CorelDRAW -->
<svg xmlns="http://www.w3.org/2000/svg" xml:space="preserve" width="113.204mm" height="25.54mm" version="1.1" style="shape-rendering:geometricPrecision; text-rendering:geometricPrecision; image-rendering:optimizeQuality; fill-rule:evenodd; clip-rule:evenodd"
viewBox="0 0 12041.08 2716.6"
 xmlns:xlink="http://www.w3.org/1999/xlink"
 xmlns:xodm="http://www.corel.com/coreldraw/odm/2003">
 <defs>
  <style type="text/css">
   <![CDATA[
    .fil0 {fill:#00E8FF}
    .fil2 {fill:black;fill-rule:nonzero}
    .fil1 {fill:black;fill-rule:nonzero}
   ]]>
  </style>
 </defs>
 <g id="Camada_x0020_1">
  <metadata id="CorelCorpID_0Corel-Layer"/>
  <polygon class="fil0" points="4951.23,0 5972.08,0 4488.39,2716.6 3437.31,2716.6 2483.03,1283.92 1974.51,2194.87 823.16,2194.87 1755.57,518.45 2898.96,518.45 3904.33,1883.75 "/>
  <path class="fil1" d="M8654.32 970.5l0 939.38 -518.03 0 0 -889.59c0,-143.24 -60.59,-188.31 -143.23,-188.31 -96.26,0 -224.91,49.34 -335.14,91.62 -20.69,7.92 -40.77,15.63 -60.25,22.86l0 963.42 -518.03 0 0 -1498.63 393.85 0 91.11 174.62c37.09,-15.38 74.74,-31.92 112,-48.3 270.82,-118.96 523.65,-230.02 790.75,-4.19 74.16,62.74 121.06,130.87 149.43,204.77 27.91,72.67 37.52,149.85 37.52,232.36zm-3206.7 1339.22l-737.01 0 1038.59 -1901.62 755.04 0 -1056.61 1901.62zm-5447.62 0l1059.75 -1901.62 76.99 0 3588.76 -1.93 -821.17 1477.58 -1005.37 -1365.3 -1143.39 0 -932.41 1676.41 1151.34 0 508.53 -910.95 683.74 1026.51 -3166.77 -0.71zm11469.25 -885.43c24.42,-40.96 38.13,-89.11 45.57,-138.71 12.88,-85.72 12.2,-180.66 -1.26,-264.67 -7.61,-47.46 -20.91,-90.04 -43.6,-124.93 -41.75,-64.28 -120.15,-104.81 -263.65,-104.81 -125.02,0 -202.46,42.24 -248.23,106.74 -24.75,34.89 -41.2,76.58 -51.35,122.06 -18.21,81.47 -18.49,158.02 -5.74,241.77 10.7,70.46 33.37,138.43 75.8,190.27 46.37,56.63 118.79,94.55 229.53,94.55 142.27,0 220.53,-51.14 262.94,-122.26zm399.2 -801.12c126.87,147.42 172.62,303.53 172.62,557.45 0,258.79 -36.16,367.98 -158.03,521.63 -124.57,157.03 -333.75,246.36 -676.74,246.36 -338.1,0 -546.51,-90.75 -671.43,-248.44 -122.19,-154.27 -160.07,-263.51 -160.07,-519.55 0,-236.74 38.76,-392.59 161.48,-544.07 125.23,-154.54 333.65,-247.44 670.02,-247.44 323.91,0 532.97,83.97 662.14,234.06zm-1552 638.02l-1087.1 0c2.75,105.45 18.05,131.96 63.55,187.9 48.66,59.81 137.45,91.91 291.97,91.91 82.01,0 139.88,-23.33 179.61,-55.13l0.17 0c32.23,-25.77 53.23,-56.95 65.79,-85.92l488.52 0c-13.67,172.14 -81.63,298.94 -188.68,387.33 -133.86,110.51 -326.45,158.57 -548.68,158.57 -301.6,0 -518.1,-50.72 -661.79,-194.93 -140.87,-141.41 -205.7,-263.32 -205.7,-620.1 0,-273.08 71.23,-417.29 214.12,-547.27 143.96,-130.99 357.19,-191.69 640.3,-191.69 263.4,0 444.92,68.44 564.81,181.01 138.76,130.29 183.73,316.81 183.73,524.09 0,52.94 1.66,111.06 -0.6,164.22zm-996.42 -415.31c-44.38,42.58 -73.36,105.56 -79.91,193.28l604.89 0c-5.03,-93.84 -28.88,-160.24 -71.78,-203.14 -46.35,-46.35 -118.95,-66.98 -217.79,-66.98 -95.26,0 -179.08,22.76 -235.41,76.84z"/>
  <path class="fil2" d="M7068.35 2355.06l0 234.72c0,2.29 1.15,3.44 3.44,3.44l39.61 0c2.86,0 3.44,-1.72 3.44,-3.44l0 -234.72 52.8 0c2.3,-0.57 3.44,-1.15 3.44,-4.03l0 -33.86c0,-1.71 -0.56,-2.86 -3.44,-2.86l-52.8 0 0 -26.39c0,-53.36 18.94,-67.72 44.77,-67.72 5.72,0 13.19,0.57 19.51,2.87 2.29,0.56 3.44,-0.57 3.44,-2.87l0 -33.28c0,-2.29 -0.57,-3.46 -2.86,-4.6 -5.74,-2.3 -13.79,-3.44 -25.25,-3.44 -34.43,0 -58.53,14.92 -72.89,43.61 -8.61,16.64 -13.19,38.45 -13.19,70.57l0 21.24 -36.14 0c-2.31,0 -2.88,1.15 -2.88,3.44l0 33.28c0,2.88 0.57,3.46 2.88,4.03l36.14 0zm297.78 103.87c26.96,0 51.08,-1.15 59.11,-2.3 2.88,0 4.02,-1.71 4.6,-4.02 1.15,-5.16 1.72,-15.48 1.72,-29.84 0,-48.21 -27.54,-113.63 -106.75,-113.63 -76.32,0 -121.65,66 -121.65,147.49 0,71.16 35.01,141.75 130.26,141.75 33.29,0 57.97,-5.74 76.33,-15.5 1.73,-1.15 2.88,-2.3 2.88,-5.17l0 -32.14c0,-2.86 -1.15,-3.44 -3.46,-2.29 -20.65,10.32 -43.61,14.35 -67.14,14.35 -62.54,0 -92.4,-41.9 -91.81,-98.71l115.91 0zm-115.33 -35.58c5.15,-38.45 26.96,-75.75 72.3,-75.75 51.64,0 64.28,47.06 64.28,67.72 0,1.71 0,5.17 -0.57,6.88 -1.71,0.57 -8.03,1.15 -35.58,1.15l-100.42 0zm247.84 -109.04c-2.86,0 -3.44,1.15 -2.86,3.44 1.72,16.07 2.86,47.64 2.86,72.89l0 198.57c0,2.86 0.57,4.01 3.46,4.01l39.59 0c2.87,0 4.02,-0.57 4.02,-3.44l0 -192.82c14.35,-21.82 48.78,-40.75 86.65,-40.17 3.46,0 4.03,-0.57 4.03,-2.87l0 -41.31c0,-2.88 -1.16,-3.46 -3.46,-3.46 -35.57,0 -70,20.67 -89.51,47.07 -0.57,-12.06 -2.31,-31.57 -4.61,-38.46 -0.56,-2.29 -1.71,-3.44 -4.57,-3.44l-35.6 0zm328.21 242.75c0,-2.88 -1.15,-2.88 -2.86,-2.88 -9.78,3.46 -17.8,4.61 -25.83,4.61 -24.68,0 -34.45,-14.92 -34.45,-40.75l0 -162.98 59.12 0c2.31,-0.57 3.45,-1.15 3.45,-3.46l0 -33.28c0,-2.86 -1.14,-4.01 -3.45,-4.01l-58.52 0c0,-29.27 1.71,-61.39 3.44,-80.35 0,-2.29 -1.72,-2.86 -3.44,-2.29l-38.46 6.32c-1.71,0.56 -2.86,1.14 -3.44,4.01 -2.31,12.05 -4.6,51.07 -5.17,72.31l-37.88 0c-2.87,0 -3.44,1.15 -3.44,4.01l0 32.14c0,2.87 0.56,4.02 3.44,4.6l37.88 0 0 169.87c0,53.35 24.1,73.46 65.43,73.46 14.92,0 28.69,-1.73 41.32,-7.47 2.86,-1.14 2.86,-2.88 2.86,-5.17l0 -28.69zm61.92 32.14c0,2.86 1.15,4.01 4.03,4.01l39.02 0c2.87,0 4.02,-1.15 4.02,-4.01l0 -271.46c0,-2.86 -1.15,-3.44 -4.02,-3.44l-39.59 0c-2.88,0 -3.46,1.15 -3.46,4.01l0 270.88zm22.96 -329.42c17.21,0 28.69,-11.48 28.69,-28.69 0,-16.65 -10.33,-28.69 -28.11,-28.69 -16.65,0 -28.11,12.04 -28.11,28.69 0,17.21 10.89,28.69 27.54,28.69zm112.42 277.18c0,52.24 26.4,61.99 52.79,61.99 11.49,0 20.67,-1.73 25.84,-4.03 2.3,-1.15 2.87,-1.71 2.87,-4.58l0 -29.85c0,-2.29 -0.57,-2.86 -2.3,-2.86 -4.6,1.15 -6.88,1.71 -10.91,1.71 -13.19,0 -21.22,-5.17 -21.22,-25.82l0 -346.04c0,-2.29 -1.15,-3.44 -4.03,-3.44l-39 0c-2.88,0 -4.03,1.15 -4.03,3.44l0 349.48zm145.14 52.24c0,2.86 1.14,4.01 4.02,4.01l39.02 0c2.88,0 4.02,-1.15 4.02,-4.01l0 -271.46c0,-2.86 -1.14,-3.44 -4.02,-3.44l-39.59 0c-2.88,0 -3.45,1.15 -3.45,4.01l0 270.88zm22.95 -329.42c17.22,0 28.69,-11.48 28.69,-28.69 0,-16.65 -10.33,-28.69 -28.11,-28.69 -16.65,0 -28.11,12.04 -28.11,28.69 0,17.21 10.89,28.69 27.54,28.69zm288.03 333.43c2.29,0 3.44,-0.57 4.01,-3.44l6.88 -33.29c0.57,-2.88 0,-3.45 -2.86,-3.45l-82.64 0c-26.97,0 -50.5,-0.57 -67.72,0 14.93,-20.66 88.39,-122.23 142.9,-204.87 1.14,-2.29 2.29,-4.6 2.29,-6.88l0 -23.54c0,-2.29 -0.57,-3.44 -2.86,-3.44l-185.37 0c-2.29,0 -3.44,1.15 -4.01,3.44l-6.32 33.28c-0.56,2.88 0.57,4.03 3.45,4.03l83.21 0c28.7,0 46.49,0 56.81,-0.57 -17.21,25.25 -107.31,148.05 -145.75,207.73 -1.16,1.73 -1.73,2.88 -1.73,4.6l0 22.39c0,2.29 1.15,4.01 2.88,4.01l196.83 0zm157.74 -284.07c-29.83,0 -57.38,6.32 -78.04,16.65 -2.29,1.14 -2.86,2.31 -2.86,4.6l0 33.86c0,2.86 1.72,3.44 3.44,2.86 19.51,-10.32 43.61,-16.64 70.01,-16.64 53.95,0 61.42,39.03 61.42,57.38l0 14.92c-5.74,-0.57 -17.22,-1.14 -36.74,-1.14 -68.29,0 -123.37,26.96 -123.37,87.8 0,58.53 43.61,88.95 103.29,88.95 33.29,0 64.28,-5.17 102.72,-22.96 1.15,-0.57 1.15,-1.71 1.15,-2.29 -1.15,-9.18 -1.15,-17.22 -1.15,-26.99l0 -131.41c0,-59.11 -29.25,-105.6 -99.86,-105.6zm53.96 242.18c-14.92,6.32 -30.42,9.18 -48.78,9.18 -48.79,0 -65.43,-25.83 -65.43,-51.07 0,-32.72 25.82,-51.08 79.2,-51.08 16.05,0 27.54,0.57 35.01,1.71l0 91.25zm133.64 37.89c0,2.86 1.15,4.01 4.03,4.01l39.58 0c2.31,0 3.46,-1.15 3.46,-4.01l0 -204.88c17.22,-21.23 40.17,-33.86 67.71,-33.86 38.44,0 56.24,28.7 56.24,70.02l0 168.72c0,2.86 1.16,4.01 4.02,4.01l39.03 0c2.3,0 4.01,-1.15 4.01,-4.01l0 -172.75c0,-88.36 -51.07,-107.31 -89.53,-107.31 -31.55,0 -60.26,12.06 -84.36,35.59 -0.57,-11.49 -1.71,-21.82 -3.44,-26.99 -0.57,-2.29 -2.29,-3.44 -4.58,-3.44l-34.44 0c-2.86,0 -4.01,1.15 -3.44,3.44 0.57,9.78 1.71,41.9 1.71,61.42l0 210.04zm421.74 -32.14c0,-2.88 -1.15,-2.88 -2.86,-2.88 -9.78,3.46 -17.8,4.61 -25.83,4.61 -24.68,0 -34.45,-14.92 -34.45,-40.75l0 -162.98 59.11 0c2.31,-0.57 3.46,-1.15 3.46,-3.46l0 -33.28c0,-2.86 -1.15,-4.01 -3.46,-4.01l-58.51 0c0,-29.27 1.71,-61.39 3.44,-80.35 0,-2.29 -1.72,-2.86 -3.44,-2.29l-38.46 6.32c-1.71,0.56 -2.86,1.14 -3.44,4.01 -2.31,12.05 -4.6,51.07 -5.17,72.31l-37.88 0c-2.87,0 -3.44,1.15 -3.44,4.01l0 32.14c0,2.87 0.56,4.02 3.44,4.6l37.88 0 0 169.87c0,53.35 24.1,73.46 65.43,73.46 14.92,0 28.69,-1.73 41.32,-7.47 2.86,-1.14 2.86,-2.88 2.86,-5.17l0 -28.69zm201.37 -98.13c26.97,0 51.08,-1.15 59.11,-2.3 2.88,0 4.03,-1.71 4.61,-4.02 1.14,-5.16 1.71,-15.48 1.71,-29.84 0,-48.21 -27.54,-113.63 -106.74,-113.63 -76.33,0 -121.65,66 -121.65,147.49 0,71.16 34.99,141.75 130.26,141.75 33.28,0 57.96,-5.74 76.32,-15.5 1.74,-1.15 2.88,-2.3 2.88,-5.17l0 -32.14c0,-2.86 -1.14,-3.44 -3.45,-2.29 -20.66,10.32 -43.61,14.35 -67.15,14.35 -62.54,0 -92.39,-41.9 -91.81,-98.71l115.91 0zm-115.33 -35.58c5.16,-38.45 26.97,-75.75 72.3,-75.75 51.65,0 64.28,47.06 64.28,67.72 0,1.71 0,5.17 -0.56,6.88 -1.72,0.57 -8.04,1.15 -35.58,1.15l-100.43 0zm394.18 -59.11c2.88,1.15 4.02,0 4.02,-2.86l0 -35.03c0,-2.29 0,-4 -2.29,-5.72 -11.49,-6.32 -33.86,-11.49 -64.28,-11.49 -60.26,0 -94.69,35.01 -94.69,76.89 0,40.17 23.54,63.14 77.47,84.96 39.04,17.78 51.08,30.4 51.08,50.49 0,21.23 -17.21,37.3 -52.79,37.3 -24.1,0 -52.22,-6.32 -74.03,-21.82 -1.72,-1.15 -3.44,0 -3.44,2.31l0 38.44c0,2.29 0.57,3.45 2.86,5.17 16.07,9.18 43.04,15.5 74.03,15.5 56.23,0 99.28,-28.13 99.28,-80.92 0,-40.17 -22.39,-63.7 -78.06,-86.65 -41.89,-17.8 -51.64,-29.86 -51.64,-47.64 0,-16.65 12.64,-35.01 48.78,-35.01 22.96,0 48.22,6.32 63.69,16.07zm365.5 94.69c26.96,0 51.07,-1.15 59.11,-2.3 2.88,0 4.02,-1.71 4.6,-4.02 1.15,-5.16 1.72,-15.48 1.72,-29.84 0,-48.21 -27.55,-113.63 -106.75,-113.63 -76.32,0 -121.65,66 -121.65,147.49 0,71.16 35.01,141.75 130.26,141.75 33.29,0 57.97,-5.74 76.33,-15.5 1.73,-1.15 2.88,-2.3 2.88,-5.17l0 -32.14c0,-2.86 -1.15,-3.44 -3.46,-2.29 -20.66,10.32 -43.61,14.35 -67.14,14.35 -62.54,0 -92.4,-41.9 -91.81,-98.71l115.91 0zm-115.33 -35.58c5.15,-38.45 26.96,-75.75 72.3,-75.75 51.64,0 64.28,47.06 64.28,67.72 0,1.71 0,5.17 -0.57,6.88 -1.72,0.57 -8.03,1.15 -35.58,1.15l-100.42 0zm394.17 -59.11c2.88,1.15 4.03,0 4.03,-2.86l0 -35.03c0,-2.29 0,-4 -2.3,-5.72 -11.49,-6.32 -33.86,-11.49 -64.28,-11.49 -60.25,0 -94.68,35.01 -94.68,76.89 0,40.17 23.53,63.14 77.47,84.96 39.03,17.78 51.07,30.4 51.07,50.49 0,21.23 -17.21,37.3 -52.79,37.3 -24.1,0 -52.22,-6.32 -74.03,-21.82 -1.71,-1.15 -3.44,0 -3.44,2.31l0 38.44c0,2.29 0.57,3.45 2.86,5.17 16.07,9.18 43.04,15.5 74.03,15.5 56.24,0 99.28,-28.13 99.28,-80.92 0,-40.17 -22.38,-63.7 -78.05,-86.65 -41.9,-17.8 -51.65,-29.86 -51.65,-47.64 0,-16.65 12.64,-35.01 48.79,-35.01 22.95,0 48.21,6.32 63.68,16.07zm185.89 -55.1c-45.33,0 -81.48,14.35 -101.01,21.24 -1.71,0.57 -1.71,1.71 -1.71,2.86 0.57,6.89 1.14,19.53 1.14,24.1l0 356.37c0,2.31 1.15,2.88 3.46,2.88 2.86,0 27.54,-2.88 40.15,-4.03 2.88,-0.56 3.46,-1.71 3.46,-4.01l0 -111.91c7.47,1.16 14.92,1.73 26.97,1.73 78.04,0 157.24,-49.93 157.24,-154.38 0,-78.04 -47.64,-134.86 -129.7,-134.86zm-5.73 40.75c56.24,0 87.8,37.88 87.8,97.56 0,75.18 -52.79,110.76 -106.16,110.76 -10.9,0 -21.81,-0.57 -30.41,-2.86l0 -196.85c14.35,-5.16 30.41,-8.61 48.78,-8.61zm352.3 109.04c26.96,0 51.07,-1.15 59.11,-2.3 2.87,0 4.02,-1.71 4.6,-4.02 1.15,-5.16 1.71,-15.48 1.71,-29.84 0,-48.21 -27.54,-113.63 -106.74,-113.63 -76.33,0 -121.65,66 -121.65,147.49 0,71.16 35.01,141.75 130.26,141.75 33.28,0 57.96,-5.74 76.33,-15.5 1.73,-1.15 2.87,-2.3 2.87,-5.17l0 -32.14c0,-2.86 -1.14,-3.44 -3.45,-2.29 -20.66,10.32 -43.61,14.35 -67.15,14.35 -62.54,0 -92.39,-41.9 -91.79,-98.71l115.91 0zm-115.34 -35.58c5.16,-38.45 26.97,-75.75 72.3,-75.75 51.65,0 64.29,47.06 64.29,67.72 0,1.71 0,5.17 -0.57,6.88 -1.72,0.57 -8.04,1.15 -35.58,1.15l-100.43 0zm430.34 127.97c0,-1.71 -0.57,-2.86 -2.87,-2.29 -13.77,5.15 -30.42,7.46 -50.49,7.46 -51.08,0 -96.41,-32.71 -96.41,-103.88 0,-62.54 39.59,-102.14 96.41,-102.14 22.38,0 36.14,2.31 49.93,8.03 1.71,0.57 3.44,0.57 3.44,-2.29l0.56 -35.01c0,-2.88 -0.56,-4.03 -2.86,-5.17 -8.61,-4.01 -24.1,-6.89 -51.07,-6.89 -86.66,0 -144.04,62.56 -144.04,145.78 0,78.62 46.47,143.47 136,143.47 20.67,0 41.9,-1.16 59.11,-8.04 2.3,-1.14 2.3,-2.31 2.3,-4.6l0 -34.43zm67.09 37.89c0,2.86 1.15,4.01 4.03,4.01l39 0c2.88,0 4.03,-1.15 4.03,-4.01l0 -271.46c0,-2.86 -1.15,-3.44 -4.03,-3.44l-39.58 0c-2.88,0 -3.46,1.15 -3.46,4.01l0 270.88zm22.96 -329.42c17.21,0 28.69,-11.48 28.69,-28.69 0,-16.65 -10.33,-28.69 -28.11,-28.69 -16.65,0 -28.12,12.04 -28.12,28.69 0,17.21 10.9,28.69 27.55,28.69zm199.64 49.35c-29.84,0 -57.4,6.32 -78.04,16.65 -2.29,1.14 -2.86,2.31 -2.86,4.6l0 33.86c0,2.86 1.71,3.44 3.44,2.86 19.51,-10.32 43.61,-16.64 70,-16.64 53.96,0 61.42,39.03 61.42,57.38l0 14.92c-5.74,-0.57 -17.21,-1.14 -36.74,-1.14 -68.29,0 -123.36,26.96 -123.36,87.8 0,58.53 43.61,88.95 103.29,88.95 33.28,0 64.28,-5.17 102.72,-22.96 1.14,-0.57 1.14,-1.71 1.14,-2.29 -1.14,-9.18 -1.14,-17.22 -1.14,-26.99l0 -131.41c0,-59.11 -29.26,-105.6 -99.86,-105.6zm53.95 242.18c-14.92,6.32 -30.42,9.18 -48.78,9.18 -48.78,0 -65.43,-25.83 -65.43,-51.07 0,-32.72 25.83,-51.08 79.21,-51.08 16.05,0 27.54,0.57 34.99,1.71l0 91.25zm134.22 37.89c0,2.86 1.14,4.01 4.02,4.01l39.02 0c2.88,0 4.02,-1.15 4.02,-4.01l0 -271.46c0,-2.86 -1.14,-3.44 -4.02,-3.44l-39.59 0c-2.87,0 -3.45,1.15 -3.45,4.01l0 270.88zm22.95 -329.42c17.22,0 28.69,-11.48 28.69,-28.69 0,-16.65 -10.33,-28.69 -28.11,-28.69 -16.65,0 -28.11,12.04 -28.11,28.69 0,17.21 10.9,28.69 27.54,28.69zm255.31 104.45c2.88,1.15 4.03,0 4.03,-2.86l0 -35.03c0,-2.29 0,-4 -2.29,-5.72 -11.5,-6.32 -33.87,-11.49 -64.29,-11.49 -60.25,0 -94.68,35.01 -94.68,76.89 0,40.17 23.53,63.14 77.47,84.96 39.03,17.78 51.07,30.4 51.07,50.49 0,21.23 -17.21,37.3 -52.79,37.3 -24.1,0 -52.22,-6.32 -74.03,-21.82 -1.71,-1.15 -3.44,0 -3.44,2.31l0 38.44c0,2.29 0.57,3.45 2.86,5.17 16.07,9.18 43.05,15.5 74.04,15.5 56.23,0 99.28,-28.13 99.28,-80.92 0,-40.17 -22.39,-63.7 -78.06,-86.65 -41.9,-17.8 -51.65,-29.86 -51.65,-47.64 0,-16.65 12.64,-35.01 48.79,-35.01 22.95,0 48.21,6.32 63.68,16.07z"/>
 </g>
</svg>