<!-- Creator: CorelDRAW -->
<svg xmlns="http://www.w3.org/2000/svg" xml:space="preserve" width="61.1489mm" height="54.4215mm" version="1.1" style="shape-rendering:geometricPrecision; text-rendering:geometricPrecision; image-rendering:optimizeQuality; fill-rule:evenodd; clip-rule:evenodd"
viewBox="0 0 5584.86 4970.43"
 xmlns:xlink="http://www.w3.org/1999/xlink"
 xmlns:xodm="http://www.corel.com/coreldraw/odm/2003">
 <defs>
  <style type="text/css">
   <![CDATA[
    .fil0 {fill:#00E8FF}
    .fil2 {fill:black;fill-rule:nonzero}
    .fil1 {fill:black;fill-rule:nonzero}
   ]]>
  </style>
 </defs>
 <g id="Camada_x0020_1">
  <metadata id="CorelCorpID_0Corel-Layer"/>
  <polygon class="fil0" points="4251.38,0 5127.93,0 3853.95,2332.62 2951.44,2332.62 2132.06,1102.44 1695.41,1884.63 706.8,1884.63 1507.41,445.18 2489.19,445.18 3352.45,1617.5 "/>
  <path class="fil1" d="M1906.16 3210.75l0 918.87 -506.71 0 0 -870.16c0,-140.12 -59.27,-184.21 -140.1,-184.21 -94.16,0 -220.01,48.28 -327.83,89.62 -20.23,7.75 -39.88,15.29 -58.92,22.37l0 942.37 -506.72 0 0 -1465.91 385.25 0 89.13 170.81c36.28,-15.04 73.1,-31.22 109.55,-47.25 264.91,-116.37 512.22,-224.99 773.48,-4.09 72.55,61.36 118.42,128.01 146.18,200.28 27.3,71.08 36.69,146.59 36.69,227.29zm2771.44 -1227.5l-632.83 0 891.78 -1632.83 648.32 0 -907.27 1632.83zm-4677.6 0l909.95 -1632.83 66.11 0 3081.49 -1.66 -705.1 1268.74 -863.26 -1172.32 -981.78 0 -800.61 1439.45 988.61 0 436.65 -782.19 587.08 881.42 -2719.14 -0.61zm4659.62 1671.38c23.89,-40.07 37.3,-87.17 44.58,-135.68 12.59,-83.85 11.94,-176.72 -1.23,-258.89 -7.44,-46.42 -20.46,-88.08 -42.65,-122.2 -40.83,-62.87 -117.53,-102.52 -257.89,-102.52 -122.3,0 -198.04,41.31 -242.81,104.4 -24.21,34.13 -40.3,74.91 -50.23,119.4 -17.82,79.68 -18.08,154.56 -5.62,236.49 10.46,68.92 32.63,135.41 74.13,186.11 45.36,55.4 116.19,92.49 224.52,92.49 139.15,0 215.71,-50.03 257.19,-119.59zm390.49 -783.63c124.1,144.21 168.85,296.9 168.85,545.28 0,253.14 -35.37,359.94 -154.58,510.24 -121.85,153.6 -326.45,240.98 -661.95,240.98 -330.71,0 -534.59,-88.77 -656.77,-243.02 -119.53,-150.91 -156.58,-257.76 -156.58,-508.2 0,-231.57 37.92,-384.02 157.96,-532.19 122.49,-151.16 326.36,-242.03 655.39,-242.03 316.83,0 521.32,82.14 647.68,228.94zm-1518.11 624.09l-1063.36 0c2.7,103.14 17.65,129.07 62.17,183.79 47.59,58.52 134.44,89.91 285.6,89.91 80.21,0 136.82,-22.81 175.68,-53.92l0.16 0c31.53,-25.22 52.07,-55.7 64.36,-84.04l477.84 0c-13.37,168.38 -79.83,292.42 -184.56,378.87 -130.93,108.1 -319.32,155.11 -536.69,155.11 -295.02,0 -506.79,-49.61 -647.34,-190.67 -137.8,-138.33 -201.21,-257.57 -201.21,-606.56 0,-267.11 69.68,-408.17 209.43,-535.32 140.82,-128.13 349.4,-187.5 626.32,-187.5 257.65,0 435.21,66.94 552.48,177.06 135.72,127.44 179.71,309.9 179.71,512.66 0,51.78 1.62,108.62 -0.58,160.63zm-974.66 -406.25c-43.41,41.65 -71.77,103.25 -78.18,189.07l591.68 0c-4.91,-91.79 -28.24,-156.75 -70.2,-198.7 -45.35,-45.35 -116.36,-65.52 -213.03,-65.52 -93.19,0 -175.18,22.27 -230.27,75.16z"/>
  <path class="fil2" d="M379.43 4616.8l0 229.59c0,2.24 1.12,3.36 3.36,3.36l38.73 0c2.8,0 3.36,-1.68 3.36,-3.36l0 -229.59 51.66 0c2.25,-0.57 3.36,-1.12 3.36,-3.94l0 -33.13c0,-1.68 -0.56,-2.79 -3.36,-2.79l-51.66 0 0 -25.82c0,-52.21 18.54,-66.24 43.8,-66.24 5.6,0 12.9,0.57 19.08,2.8 2.24,0.56 3.36,-0.56 3.36,-2.8l0 -32.56c0,-2.24 -0.56,-3.37 -2.8,-4.49 -5.62,-2.24 -13.48,-3.36 -24.7,-3.36 -33.68,0 -57.26,14.59 -71.29,42.66 -8.42,16.28 -12.91,37.61 -12.91,69.04l0 20.78 -35.35 0c-2.27,0 -2.82,1.11 -2.82,3.36l0 32.56c0,2.81 0.56,3.37 2.82,3.94l35.35 0zm291.28 101.6c26.39,0 49.96,-1.12 57.82,-2.25 2.81,0 3.94,-1.68 4.49,-3.94 1.12,-5.04 1.68,-15.14 1.68,-29.18 0,-47.15 -26.93,-111.15 -104.41,-111.15 -74.65,0 -119,64.55 -119,144.27 0,69.6 34.24,138.65 127.42,138.65 32.56,0 56.7,-5.62 74.65,-15.15 1.7,-1.12 2.81,-2.25 2.81,-5.06l0 -31.44c0,-2.8 -1.11,-3.36 -3.37,-2.25 -20.2,10.1 -42.66,14.04 -65.68,14.04 -61.18,0 -90.38,-40.97 -89.81,-96.55l113.38 0zm-112.81 -34.81c5.04,-37.61 26.38,-74.09 70.72,-74.09 50.52,0 62.87,46.01 62.87,66.23 0,1.68 0,5.06 -0.56,6.74 -1.68,0.56 -7.86,1.11 -34.8,1.11l-98.24 0zm242.44 -106.65c-2.8,0 -3.36,1.11 -2.8,3.36 1.68,15.72 2.8,46.6 2.8,71.29l0 194.23c0,2.8 0.56,3.93 3.38,3.93l38.72 0c2.82,0 3.94,-0.57 3.94,-3.36l0 -188.62c14.04,-21.34 47.72,-39.86 84.76,-39.29 3.38,0 3.95,-0.57 3.95,-2.8l0 -40.41c0,-2.82 -1.14,-3.38 -3.38,-3.38 -34.8,0 -68.48,20.21 -87.56,46.03 -0.56,-11.79 -2.26,-30.87 -4.5,-37.61 -0.56,-2.25 -1.68,-3.36 -4.48,-3.36l-34.82 0zm321.03 237.45c0,-2.81 -1.12,-2.81 -2.8,-2.81 -9.55,3.37 -17.4,4.49 -25.25,4.49 -24.14,0 -33.7,-14.59 -33.7,-39.86l0 -159.41 57.82 0c2.26,-0.57 3.38,-1.12 3.38,-3.38l0 -32.56c0,-2.8 -1.12,-3.92 -3.38,-3.92l-57.24 0c0,-28.64 1.68,-60.06 3.36,-78.6 0,-2.24 -1.68,-2.79 -3.36,-2.24l-37.62 6.17c-1.68,0.57 -2.8,1.12 -3.36,3.93 -2.26,11.8 -4.5,49.96 -5.06,70.74l-37.05 0c-2.8,0 -3.36,1.11 -3.36,3.92l0 31.44c0,2.82 0.56,3.94 3.36,4.5l37.05 0 0 166.15c0,52.2 23.58,71.85 64,71.85 14.59,0 28.06,-1.69 40.41,-7.3 2.8,-1.11 2.8,-2.81 2.8,-5.06l0 -28.06zm60.57 31.44c0,2.8 1.11,3.93 3.94,3.93l38.16 0c2.82,0 3.94,-1.12 3.94,-3.93l0 -265.52c0,-2.8 -1.11,-3.36 -3.94,-3.36l-38.72 0c-2.81,0 -3.37,1.11 -3.37,3.92l0 264.96zm22.46 -322.22c16.83,0 28.06,-11.22 28.06,-28.06 0,-16.28 -10.1,-28.07 -27.5,-28.07 -16.28,0 -27.5,11.78 -27.5,28.07 0,16.83 10.66,28.06 26.94,28.06zm109.96 271.13c0,51.09 25.82,60.64 51.64,60.64 11.23,0 20.21,-1.7 25.27,-3.94 2.25,-1.12 2.8,-1.68 2.8,-4.48l0 -29.2c0,-2.24 -0.56,-2.8 -2.25,-2.8 -4.49,1.12 -6.73,1.68 -10.68,1.68 -12.9,0 -20.76,-5.05 -20.76,-25.25l0 -338.49c0,-2.25 -1.11,-3.36 -3.94,-3.36l-38.16 0c-2.82,0 -3.94,1.11 -3.94,3.36l0 341.85zm141.96 51.09c0,2.8 1.12,3.93 3.95,3.93l38.16 0c2.81,0 3.94,-1.12 3.94,-3.93l0 -265.52c0,-2.8 -1.12,-3.36 -3.94,-3.36l-38.72 0c-2.81,0 -3.38,1.11 -3.38,3.92l0 264.96zm22.46 -322.22c16.84,0 28.07,-11.22 28.07,-28.06 0,-16.28 -10.1,-28.07 -27.5,-28.07 -16.28,0 -27.5,11.78 -27.5,28.07 0,16.83 10.66,28.06 26.93,28.06zm281.74 326.15c2.24,0 3.36,-0.57 3.92,-3.36l6.74 -32.56c0.57,-2.82 0,-3.38 -2.79,-3.38l-80.84 0c-26.39,0 -49.4,-0.56 -66.24,0 14.6,-20.2 86.46,-119.55 139.77,-200.39 1.12,-2.25 2.25,-4.5 2.25,-6.74l0 -23.02c0,-2.25 -0.57,-3.36 -2.8,-3.36l-181.31 0c-2.24,0 -3.36,1.11 -3.92,3.36l-6.18 32.56c-0.56,2.81 0.56,3.94 3.36,3.94l81.4 0c28.08,0 45.47,0 55.58,-0.57 -16.83,24.71 -104.97,144.82 -142.57,203.2 -1.14,1.7 -1.7,2.82 -1.7,4.5l0 21.89c0,2.25 1.12,3.93 2.81,3.93l192.54 0zm154.31 -277.87c-29.18,0 -56.14,6.17 -76.34,16.28 -2.25,1.12 -2.8,2.26 -2.8,4.5l0 33.12c0,2.8 1.68,3.36 3.36,2.8 19.08,-10.1 42.66,-16.28 68.48,-16.28 52.77,0 60.07,38.18 60.07,56.14l0 14.59c-5.62,-0.56 -16.83,-1.12 -35.93,-1.12 -66.8,0 -120.68,26.39 -120.68,85.88 0,57.26 42.65,87.01 101.03,87.01 32.56,0 62.88,-5.05 100.47,-22.45 1.12,-0.57 1.12,-1.68 1.12,-2.25 -1.12,-8.98 -1.12,-16.84 -1.12,-26.39l0 -128.53c0,-57.82 -28.61,-103.3 -97.67,-103.3zm52.77 236.89c-14.59,6.17 -29.76,8.98 -47.71,8.98 -47.72,0 -64,-25.26 -64,-49.96 0,-31.99 25.25,-49.96 77.48,-49.96 15.7,0 26.93,0.57 34.23,1.68l0 89.26zm130.73 37.05c0,2.8 1.11,3.93 3.94,3.93l38.72 0c2.27,0 3.38,-1.12 3.38,-3.93l0 -200.41c16.84,-20.76 39.3,-33.12 66.24,-33.12 37.59,0 55,28.08 55,68.5l0 165.03c0,2.8 1.13,3.93 3.94,3.93l38.18 0c2.24,0 3.92,-1.12 3.92,-3.93l0 -168.96c0,-86.45 -49.96,-104.98 -87.58,-104.98 -30.86,0 -58.94,11.8 -82.51,34.82 -0.57,-11.24 -1.68,-21.34 -3.36,-26.39 -0.57,-2.25 -2.25,-3.36 -4.48,-3.36l-33.69 0c-2.8,0 -3.93,1.11 -3.36,3.36 0.56,9.55 1.68,40.97 1.68,60.07l0 205.45zm412.53 -31.44c0,-2.81 -1.12,-2.81 -2.8,-2.81 -9.55,3.37 -17.4,4.49 -25.25,4.49 -24.14,0 -33.7,-14.59 -33.7,-39.86l0 -159.41 57.82 0c2.26,-0.57 3.38,-1.12 3.38,-3.38l0 -32.56c0,-2.8 -1.12,-3.92 -3.38,-3.92l-57.25 0c0,-28.64 1.68,-60.06 3.36,-78.6 0,-2.24 -1.68,-2.79 -3.36,-2.24l-37.61 6.17c-1.68,0.57 -2.8,1.12 -3.36,3.93 -2.26,11.8 -4.5,49.96 -5.06,70.74l-37.06 0c-2.79,0 -3.36,1.11 -3.36,3.92l0 31.44c0,2.82 0.57,3.94 3.36,4.5l37.06 0 0 166.15c0,52.2 23.57,71.85 64,71.85 14.59,0 28.06,-1.69 40.41,-7.3 2.8,-1.11 2.8,-2.81 2.8,-5.06l0 -28.06zm196.98 -95.99c26.39,0 49.96,-1.12 57.82,-2.25 2.81,0 3.94,-1.68 4.49,-3.94 1.12,-5.04 1.68,-15.14 1.68,-29.18 0,-47.15 -26.93,-111.15 -104.41,-111.15 -74.65,0 -119,64.55 -119,144.27 0,69.6 34.24,138.65 127.42,138.65 32.56,0 56.7,-5.62 74.65,-15.15 1.7,-1.12 2.82,-2.25 2.82,-5.06l0 -31.44c0,-2.8 -1.12,-3.36 -3.38,-2.25 -20.2,10.1 -42.66,14.04 -65.68,14.04 -61.18,0 -90.38,-40.97 -89.8,-96.55l113.37 0zm-112.81 -34.81c5.04,-37.61 26.38,-74.09 70.72,-74.09 50.52,0 62.87,46.01 62.87,66.23 0,1.68 0,5.06 -0.56,6.74 -1.68,0.56 -7.85,1.11 -34.8,1.11l-98.24 0zm385.58 -57.81c2.81,1.12 3.94,0 3.94,-2.8l0 -34.25c0,-2.25 0,-3.93 -2.24,-5.61 -11.24,-6.17 -33.13,-11.23 -62.88,-11.23 -58.94,0 -92.61,34.24 -92.61,75.21 0,39.3 23.02,61.76 75.78,83.09 38.18,17.4 49.96,29.75 49.96,49.4 0,20.76 -16.84,36.48 -51.64,36.48 -23.58,0 -51.08,-6.17 -72.42,-21.34 -1.68,-1.12 -3.36,0 -3.36,2.26l0 37.6c0,2.24 0.56,3.38 2.79,5.06 15.72,8.98 42.1,15.15 72.42,15.15 55,0 97.11,-27.51 97.11,-79.15 0,-39.3 -21.89,-62.32 -76.35,-84.76 -40.97,-17.4 -50.52,-29.2 -50.52,-46.6 0,-16.28 12.36,-34.24 47.72,-34.24 22.46,0 47.15,6.17 62.3,15.72zm357.51 92.62c26.39,0 49.96,-1.12 57.82,-2.25 2.81,0 3.94,-1.68 4.49,-3.94 1.12,-5.04 1.68,-15.14 1.68,-29.18 0,-47.15 -26.93,-111.15 -104.41,-111.15 -74.65,0 -119,64.55 -119,144.27 0,69.6 34.24,138.65 127.42,138.65 32.56,0 56.7,-5.62 74.65,-15.15 1.7,-1.12 2.82,-2.25 2.82,-5.06l0 -31.44c0,-2.8 -1.12,-3.36 -3.38,-2.25 -20.2,10.1 -42.66,14.04 -65.68,14.04 -61.18,0 -90.38,-40.97 -89.8,-96.55l113.37 0zm-112.81 -34.81c5.04,-37.61 26.38,-74.09 70.72,-74.09 50.52,0 62.87,46.01 62.87,66.23 0,1.68 0,5.06 -0.56,6.74 -1.68,0.56 -7.86,1.11 -34.8,1.11l-98.24 0zm385.58 -57.81c2.81,1.12 3.94,0 3.94,-2.8l0 -34.25c0,-2.25 0,-3.93 -2.24,-5.61 -11.24,-6.17 -33.13,-11.23 -62.88,-11.23 -58.94,0 -92.61,34.24 -92.61,75.21 0,39.3 23.02,61.76 75.77,83.09 38.19,17.4 49.96,29.75 49.96,49.4 0,20.76 -16.83,36.48 -51.64,36.48 -23.57,0 -51.07,-6.17 -72.41,-21.34 -1.68,-1.12 -3.36,0 -3.36,2.26l0 37.6c0,2.24 0.56,3.38 2.79,5.06 15.72,8.98 42.1,15.15 72.42,15.15 55,0 97.11,-27.51 97.11,-79.15 0,-39.3 -21.89,-62.32 -76.35,-84.76 -40.97,-17.4 -50.52,-29.2 -50.52,-46.6 0,-16.28 12.36,-34.24 47.72,-34.24 22.46,0 47.15,6.17 62.3,15.72zm181.81 -53.9c-44.33,0 -79.7,14.04 -98.79,20.78 -1.68,0.56 -1.68,1.68 -1.68,2.79 0.57,6.74 1.12,19.1 1.12,23.58l0 348.59c0,2.26 1.12,2.81 3.38,2.81 2.79,0 26.93,-2.81 39.28,-3.94 2.81,-0.56 3.38,-1.68 3.38,-3.92l0 -109.47c7.3,1.13 14.59,1.69 26.38,1.69 76.34,0 153.81,-48.84 153.81,-151.01 0,-76.34 -46.6,-131.91 -126.88,-131.91zm-5.6 39.86c55,0 85.88,37.05 85.88,95.43 0,73.54 -51.64,108.34 -103.85,108.34 -10.66,0 -21.33,-0.57 -29.74,-2.8l0 -192.55c14.04,-5.04 29.74,-8.42 47.71,-8.42zm344.6 106.66c26.38,0 49.96,-1.12 57.82,-2.25 2.81,0 3.94,-1.68 4.49,-3.94 1.12,-5.04 1.68,-15.14 1.68,-29.18 0,-47.15 -26.93,-111.15 -104.41,-111.15 -74.65,0 -119,64.55 -119,144.27 0,69.6 34.24,138.65 127.42,138.65 32.56,0 56.69,-5.62 74.65,-15.15 1.7,-1.12 2.81,-2.25 2.81,-5.06l0 -31.44c0,-2.8 -1.11,-3.36 -3.37,-2.25 -20.2,10.1 -42.66,14.04 -65.68,14.04 -61.18,0 -90.38,-40.97 -89.81,-96.55l113.38 0zm-112.81 -34.81c5.04,-37.61 26.38,-74.09 70.72,-74.09 50.52,0 62.87,46.01 62.87,66.23 0,1.68 0,5.06 -0.56,6.74 -1.68,0.56 -7.86,1.11 -34.8,1.11l-98.24 0zm420.93 125.18c0,-1.68 -0.56,-2.8 -2.8,-2.24 -13.47,5.04 -29.76,7.3 -49.39,7.3 -49.96,0 -94.3,-32 -94.3,-101.62 0,-61.17 38.72,-99.92 94.3,-99.92 21.89,0 35.35,2.26 48.84,7.86 1.68,0.56 3.36,0.56 3.36,-2.25l0.56 -34.23c0,-2.82 -0.56,-3.95 -2.79,-5.06 -8.42,-3.93 -23.58,-6.74 -49.96,-6.74 -84.76,0 -140.9,61.19 -140.9,142.59 0,76.9 45.47,140.33 133.03,140.33 20.22,0 40.98,-1.13 57.82,-7.85 2.24,-1.12 2.24,-2.26 2.24,-4.5l0 -33.67zm65.63 37.05c0,2.8 1.11,3.93 3.94,3.93l38.16 0c2.81,0 3.94,-1.12 3.94,-3.93l0 -265.52c0,-2.8 -1.12,-3.36 -3.94,-3.36l-38.72 0c-2.81,0 -3.37,1.11 -3.37,3.92l0 264.96zm22.46 -322.22c16.83,0 28.06,-11.22 28.06,-28.06 0,-16.28 -10.1,-28.07 -27.5,-28.07 -16.28,0 -27.5,11.78 -27.5,28.07 0,16.83 10.66,28.06 26.94,28.06zm195.28 48.28c-29.18,0 -56.13,6.17 -76.34,16.28 -2.24,1.12 -2.8,2.26 -2.8,4.5l0 33.12c0,2.8 1.68,3.36 3.36,2.8 19.08,-10.1 42.66,-16.28 68.48,-16.28 52.77,0 60.08,38.18 60.08,56.14l0 14.59c-5.63,-0.56 -16.84,-1.12 -35.94,-1.12 -66.8,0 -120.68,26.39 -120.68,85.88 0,57.26 42.66,87.01 101.03,87.01 32.56,0 62.88,-5.05 100.48,-22.45 1.11,-0.57 1.11,-1.68 1.11,-2.25 -1.11,-8.98 -1.11,-16.84 -1.11,-26.39l0 -128.53c0,-57.82 -28.62,-103.3 -97.68,-103.3zm52.78 236.89c-14.6,6.17 -29.77,8.98 -47.72,8.98 -47.72,0 -64,-25.26 -64,-49.96 0,-31.99 25.26,-49.96 77.48,-49.96 15.7,0 26.93,0.57 34.24,1.68l0 89.26zm131.28 37.05c0,2.8 1.12,3.93 3.94,3.93l38.17 0c2.81,0 3.94,-1.12 3.94,-3.93l0 -265.52c0,-2.8 -1.12,-3.36 -3.94,-3.36l-38.72 0c-2.81,0 -3.38,1.11 -3.38,3.92l0 264.96zm22.46 -322.22c16.84,0 28.06,-11.22 28.06,-28.06 0,-16.28 -10.09,-28.07 -27.5,-28.07 -16.28,0 -27.49,11.78 -27.49,28.07 0,16.83 10.66,28.06 26.93,28.06zm249.74 102.17c2.82,1.12 3.94,0 3.94,-2.8l0 -34.25c0,-2.25 0,-3.93 -2.24,-5.61 -11.23,-6.17 -33.12,-11.23 -62.87,-11.23 -58.94,0 -92.62,34.24 -92.62,75.21 0,39.3 23.02,61.76 75.78,83.09 38.18,17.4 49.96,29.75 49.96,49.4 0,20.76 -16.84,36.48 -51.64,36.48 -23.58,0 -51.08,-6.17 -72.42,-21.34 -1.68,-1.12 -3.36,0 -3.36,2.26l0 37.6c0,2.24 0.56,3.38 2.8,5.06 15.72,8.98 42.09,15.15 72.42,15.15 55,0 97.11,-27.51 97.11,-79.15 0,-39.3 -21.9,-62.32 -76.35,-84.76 -40.98,-17.4 -50.52,-29.2 -50.52,-46.6 0,-16.28 12.36,-34.24 47.71,-34.24 22.46,0 47.15,6.17 62.3,15.72z"/>
 </g>
</svg>